# xmcd
#
# Track frame offsets:
#	150
#	11735
#	23762
#	40202
#	54237
#	70257
#	87742
#	100845
#	116025
#	132292
#
# Disc length: 1923 seconds
#
# Revision: 2
# Processed by: cddbd v1.5.2PL0 Copyright (c) Steve Scherf et al.
# Submitted via: audiograbber 1.83.01
#
DISCID=8307810a
DTITLE=Exile - Hang On To Your Heart
DYEAR=1985
DGENRE=Country
TTITLE0=Promises, Promises
TTITLE1=I Could Get Used To You 
TTITLE2=Hang On To Your Heart
TTITLE3=She Likes Her Lovin'
TTITLE4=Music
TTITLE5=I Got Love (Super-Duper Love) 
TTITLE6=It'll Be Me
TTITLE7=Practice Makes Perfect 
TTITLE8=She's Too Good To Be True
TTITLE9=Proud To Be Her Man
EXTD=
EXTT0=
EXTT1=
EXTT2=
EXTT3=
EXTT4=
EXTT5=
EXTT6=
EXTT7=
EXTT8=
EXTT9=
PLAYORDER=
